G75*
%MOIN*%
%OFA0B0*%
%FSLAX24Y24*%
%IPPOS*%
%LPD*%
%AMOC8*
5,1,8,0,0,1.08239X$1,22.5*
%
%ADD10C,0.0000*%
%ADD11C,0.0051*%
%ADD12C,0.0060*%
%ADD13C,0.0040*%
%ADD14C,0.0050*%
D10*
X005530Y001330D02*
X005630Y093780D01*
X062630Y093780D01*
X062530Y001330D01*
X005530Y001330D01*
X040025Y038190D02*
X040027Y038215D01*
X040033Y038239D01*
X040042Y038261D01*
X040055Y038282D01*
X040071Y038301D01*
X040090Y038317D01*
X040111Y038330D01*
X040133Y038339D01*
X040157Y038345D01*
X040182Y038347D01*
X040207Y038345D01*
X040231Y038339D01*
X040253Y038330D01*
X040274Y038317D01*
X040293Y038301D01*
X040309Y038282D01*
X040322Y038261D01*
X040331Y038239D01*
X040337Y038215D01*
X040339Y038190D01*
X040337Y038165D01*
X040331Y038141D01*
X040322Y038119D01*
X040309Y038098D01*
X040293Y038079D01*
X040274Y038063D01*
X040253Y038050D01*
X040231Y038041D01*
X040207Y038035D01*
X040182Y038033D01*
X040157Y038035D01*
X040133Y038041D01*
X040111Y038050D01*
X040090Y038063D01*
X040071Y038079D01*
X040055Y038098D01*
X040042Y038119D01*
X040033Y038141D01*
X040027Y038165D01*
X040025Y038190D01*
X042446Y035769D02*
X042448Y035794D01*
X042454Y035818D01*
X042463Y035840D01*
X042476Y035861D01*
X042492Y035880D01*
X042511Y035896D01*
X042532Y035909D01*
X042554Y035918D01*
X042578Y035924D01*
X042603Y035926D01*
X042628Y035924D01*
X042652Y035918D01*
X042674Y035909D01*
X042695Y035896D01*
X042714Y035880D01*
X042730Y035861D01*
X042743Y035840D01*
X042752Y035818D01*
X042758Y035794D01*
X042760Y035769D01*
X042758Y035744D01*
X042752Y035720D01*
X042743Y035698D01*
X042730Y035677D01*
X042714Y035658D01*
X042695Y035642D01*
X042674Y035629D01*
X042652Y035620D01*
X042628Y035614D01*
X042603Y035612D01*
X042578Y035614D01*
X042554Y035620D01*
X042532Y035629D01*
X042511Y035642D01*
X042492Y035658D01*
X042476Y035677D01*
X042463Y035698D01*
X042454Y035720D01*
X042448Y035744D01*
X042446Y035769D01*
X060250Y040030D02*
X060252Y040080D01*
X060258Y040130D01*
X060268Y040179D01*
X060282Y040227D01*
X060299Y040274D01*
X060320Y040319D01*
X060345Y040363D01*
X060373Y040404D01*
X060405Y040443D01*
X060439Y040480D01*
X060476Y040514D01*
X060516Y040544D01*
X060558Y040571D01*
X060602Y040595D01*
X060648Y040616D01*
X060695Y040632D01*
X060743Y040645D01*
X060793Y040654D01*
X060842Y040659D01*
X060893Y040660D01*
X060943Y040657D01*
X060992Y040650D01*
X061041Y040639D01*
X061089Y040624D01*
X061135Y040606D01*
X061180Y040584D01*
X061223Y040558D01*
X061264Y040529D01*
X061303Y040497D01*
X061339Y040462D01*
X061371Y040424D01*
X061401Y040384D01*
X061428Y040341D01*
X061451Y040297D01*
X061470Y040251D01*
X061486Y040203D01*
X061498Y040154D01*
X061506Y040105D01*
X061510Y040055D01*
X061510Y040005D01*
X061506Y039955D01*
X061498Y039906D01*
X061486Y039857D01*
X061470Y039809D01*
X061451Y039763D01*
X061428Y039719D01*
X061401Y039676D01*
X061371Y039636D01*
X061339Y039598D01*
X061303Y039563D01*
X061264Y039531D01*
X061223Y039502D01*
X061180Y039476D01*
X061135Y039454D01*
X061089Y039436D01*
X061041Y039421D01*
X060992Y039410D01*
X060943Y039403D01*
X060893Y039400D01*
X060842Y039401D01*
X060793Y039406D01*
X060743Y039415D01*
X060695Y039428D01*
X060648Y039444D01*
X060602Y039465D01*
X060558Y039489D01*
X060516Y039516D01*
X060476Y039546D01*
X060439Y039580D01*
X060405Y039617D01*
X060373Y039656D01*
X060345Y039697D01*
X060320Y039741D01*
X060299Y039786D01*
X060282Y039833D01*
X060268Y039881D01*
X060258Y039930D01*
X060252Y039980D01*
X060250Y040030D01*
X060250Y044530D02*
X060252Y044580D01*
X060258Y044630D01*
X060268Y044679D01*
X060282Y044727D01*
X060299Y044774D01*
X060320Y044819D01*
X060345Y044863D01*
X060373Y044904D01*
X060405Y044943D01*
X060439Y044980D01*
X060476Y045014D01*
X060516Y045044D01*
X060558Y045071D01*
X060602Y045095D01*
X060648Y045116D01*
X060695Y045132D01*
X060743Y045145D01*
X060793Y045154D01*
X060842Y045159D01*
X060893Y045160D01*
X060943Y045157D01*
X060992Y045150D01*
X061041Y045139D01*
X061089Y045124D01*
X061135Y045106D01*
X061180Y045084D01*
X061223Y045058D01*
X061264Y045029D01*
X061303Y044997D01*
X061339Y044962D01*
X061371Y044924D01*
X061401Y044884D01*
X061428Y044841D01*
X061451Y044797D01*
X061470Y044751D01*
X061486Y044703D01*
X061498Y044654D01*
X061506Y044605D01*
X061510Y044555D01*
X061510Y044505D01*
X061506Y044455D01*
X061498Y044406D01*
X061486Y044357D01*
X061470Y044309D01*
X061451Y044263D01*
X061428Y044219D01*
X061401Y044176D01*
X061371Y044136D01*
X061339Y044098D01*
X061303Y044063D01*
X061264Y044031D01*
X061223Y044002D01*
X061180Y043976D01*
X061135Y043954D01*
X061089Y043936D01*
X061041Y043921D01*
X060992Y043910D01*
X060943Y043903D01*
X060893Y043900D01*
X060842Y043901D01*
X060793Y043906D01*
X060743Y043915D01*
X060695Y043928D01*
X060648Y043944D01*
X060602Y043965D01*
X060558Y043989D01*
X060516Y044016D01*
X060476Y044046D01*
X060439Y044080D01*
X060405Y044117D01*
X060373Y044156D01*
X060345Y044197D01*
X060320Y044241D01*
X060299Y044286D01*
X060282Y044333D01*
X060268Y044381D01*
X060258Y044430D01*
X060252Y044480D01*
X060250Y044530D01*
D11*
X062755Y002353D02*
X063007Y002353D01*
X062880Y001330D01*
X062983Y002353D01*
X062932Y002353D02*
X062880Y001330D01*
X062779Y002353D01*
X062755Y002353D02*
X062880Y001330D01*
X062830Y002353D01*
X062880Y001330D02*
X062980Y093780D01*
X063081Y092756D01*
X063105Y092756D02*
X062980Y093780D01*
X062876Y092756D01*
X062853Y092756D02*
X063105Y092756D01*
X063030Y092756D02*
X062980Y093780D01*
X062928Y092756D01*
X062853Y092756D02*
X062980Y093780D01*
X062630Y093780D02*
X063748Y093779D01*
X062630Y093780D02*
X062630Y095148D01*
X062630Y094380D02*
X061606Y094278D01*
X061606Y094254D02*
X062630Y094380D01*
X061606Y094482D01*
X061606Y094506D02*
X061606Y094254D01*
X061606Y094329D02*
X062630Y094380D01*
X061606Y094431D01*
X061606Y094506D02*
X062630Y094380D01*
X005630Y094380D01*
X006654Y094278D01*
X006654Y094254D02*
X005630Y094380D01*
X006654Y094482D01*
X006654Y094506D02*
X006654Y094254D01*
X006654Y094329D02*
X005630Y094380D01*
X006654Y094431D01*
X006654Y094506D02*
X005630Y094380D01*
X005630Y093780D02*
X005630Y095148D01*
X062530Y001330D02*
X063648Y001329D01*
D12*
X062565Y045687D02*
X062672Y045794D01*
X062672Y046008D01*
X062566Y046115D01*
X062139Y046115D01*
X062032Y046009D01*
X062031Y045795D01*
X062138Y045688D01*
X062245Y045688D01*
X062352Y045795D01*
X062352Y046115D01*
X062566Y046332D02*
X062566Y046439D01*
X062673Y046439D01*
X062673Y046332D01*
X062566Y046332D01*
X062673Y046654D02*
X062247Y047082D01*
X062140Y047082D01*
X062033Y046976D01*
X062033Y046762D01*
X062140Y046655D01*
X062673Y046654D02*
X062674Y047081D01*
X062568Y047299D02*
X062675Y047405D01*
X062675Y047619D01*
X062569Y047726D01*
X062355Y047726D01*
X062248Y047620D01*
X062248Y047513D01*
X062354Y047299D01*
X062034Y047300D01*
X062035Y047727D01*
X062249Y047944D02*
X062249Y048051D01*
X062676Y048050D01*
X062676Y047943D02*
X062676Y048157D01*
X062676Y048373D02*
X062249Y048374D01*
X062250Y048694D01*
X062357Y048800D01*
X062677Y048800D01*
X062571Y049018D02*
X062678Y049124D01*
X062678Y049444D01*
X062679Y049662D02*
X062038Y049663D01*
X062252Y049770D02*
X062252Y049983D01*
X062359Y050090D01*
X062679Y050089D01*
X062358Y049663D02*
X062252Y049770D01*
X062251Y049445D02*
X062251Y049125D01*
X062357Y049018D01*
X062571Y049018D01*
X062035Y048051D02*
X061929Y048051D01*
X036299Y094636D02*
X036299Y094956D01*
X036192Y095063D01*
X035979Y095063D01*
X035872Y094956D01*
X035654Y095063D02*
X035334Y095063D01*
X035227Y094956D01*
X035227Y094743D01*
X035334Y094636D01*
X035654Y094636D01*
X035872Y094636D02*
X035872Y095277D01*
X035010Y094956D02*
X035010Y094636D01*
X035010Y094956D02*
X034903Y095063D01*
X034583Y095063D01*
X034583Y094636D01*
X034367Y094636D02*
X034153Y094636D01*
X034260Y094636D02*
X034260Y095063D01*
X034153Y095063D01*
X034260Y095277D02*
X034260Y095383D01*
X033936Y095277D02*
X033936Y095170D01*
X033509Y094743D01*
X033509Y094636D01*
X033293Y094636D02*
X033186Y094636D01*
X033186Y094743D01*
X033293Y094743D01*
X033293Y094636D01*
X032969Y094743D02*
X032969Y094956D01*
X032862Y095063D01*
X032755Y095063D01*
X032542Y094956D01*
X032542Y095277D01*
X032969Y095277D01*
X032969Y094743D02*
X032862Y094636D01*
X032649Y094636D01*
X032542Y094743D01*
X033509Y095277D02*
X033936Y095277D01*
D13*
X015034Y072897D02*
X014957Y072897D01*
X014880Y072820D01*
X014803Y072897D01*
X014727Y072897D01*
X014650Y072820D01*
X014650Y072666D01*
X014727Y072590D01*
X014650Y072436D02*
X014650Y072129D01*
X014650Y072283D02*
X015110Y072283D01*
X014957Y072129D01*
X015034Y071976D02*
X015110Y071899D01*
X015110Y071746D01*
X015034Y071669D01*
X014957Y071669D01*
X014880Y071746D01*
X014880Y071899D01*
X014803Y071976D01*
X014727Y071976D01*
X014650Y071899D01*
X014650Y071746D01*
X014727Y071669D01*
X014727Y071515D02*
X015110Y071515D01*
X015110Y071208D02*
X014727Y071208D01*
X014650Y071285D01*
X014650Y071439D01*
X014727Y071515D01*
X014410Y071496D02*
X014410Y071649D01*
X014334Y071726D01*
X014334Y071879D02*
X014410Y071956D01*
X014410Y072109D01*
X014334Y072186D01*
X014257Y072186D01*
X014180Y072109D01*
X014103Y072186D01*
X014027Y072186D01*
X013950Y072109D01*
X013950Y071956D01*
X014027Y071879D01*
X014027Y071726D02*
X013950Y071649D01*
X013950Y071496D01*
X014027Y071419D01*
X014334Y071419D01*
X014410Y071496D01*
X014573Y071822D02*
X015187Y071822D01*
X015034Y072590D02*
X015110Y072666D01*
X015110Y072820D01*
X015034Y072897D01*
X014880Y072820D02*
X014880Y072743D01*
X014410Y072647D02*
X014334Y072493D01*
X014180Y072340D01*
X014180Y072570D01*
X014103Y072647D01*
X014027Y072647D01*
X013950Y072570D01*
X013950Y072416D01*
X014027Y072340D01*
X014180Y072340D01*
X014180Y072109D02*
X014180Y072033D01*
X014650Y066397D02*
X014650Y066090D01*
X014650Y066243D02*
X015110Y066243D01*
X014957Y066090D01*
X014650Y065936D02*
X014650Y065629D01*
X014650Y065783D02*
X015110Y065783D01*
X014957Y065629D01*
X015034Y065476D02*
X015110Y065399D01*
X015110Y065246D01*
X015034Y065169D01*
X014957Y065169D01*
X014880Y065246D01*
X014880Y065399D01*
X014803Y065476D01*
X014727Y065476D01*
X014650Y065399D01*
X014650Y065246D01*
X014727Y065169D01*
X014727Y065015D02*
X015110Y065015D01*
X015110Y064708D02*
X014727Y064708D01*
X014650Y064785D01*
X014650Y064939D01*
X014727Y065015D01*
X014410Y064996D02*
X014334Y064919D01*
X014027Y064919D01*
X013950Y064996D01*
X013950Y065149D01*
X014027Y065226D01*
X014027Y065379D02*
X013950Y065456D01*
X013950Y065609D01*
X014027Y065686D01*
X014103Y065686D01*
X014180Y065609D01*
X014180Y065533D01*
X014180Y065609D02*
X014257Y065686D01*
X014334Y065686D01*
X014410Y065609D01*
X014410Y065456D01*
X014334Y065379D01*
X014334Y065226D02*
X014410Y065149D01*
X014410Y064996D01*
X014573Y065322D02*
X015187Y065322D01*
X014410Y065916D02*
X014334Y065840D01*
X014410Y065916D02*
X014410Y066070D01*
X014334Y066147D01*
X014257Y066147D01*
X013950Y065840D01*
X013950Y066147D01*
X014727Y059897D02*
X014650Y059820D01*
X014650Y059666D01*
X014727Y059590D01*
X015034Y059897D01*
X014727Y059897D01*
X015034Y059897D02*
X015110Y059820D01*
X015110Y059666D01*
X015034Y059590D01*
X014727Y059590D01*
X014650Y059436D02*
X014650Y059129D01*
X014650Y059283D02*
X015110Y059283D01*
X014957Y059129D01*
X015034Y058976D02*
X015110Y058899D01*
X015110Y058746D01*
X015034Y058669D01*
X014957Y058669D01*
X014880Y058746D01*
X014880Y058899D01*
X014803Y058976D01*
X014727Y058976D01*
X014650Y058899D01*
X014650Y058746D01*
X014727Y058669D01*
X014727Y058515D02*
X015110Y058515D01*
X015110Y058208D02*
X014727Y058208D01*
X014650Y058285D01*
X014650Y058439D01*
X014727Y058515D01*
X014410Y058496D02*
X014334Y058419D01*
X014027Y058419D01*
X013950Y058496D01*
X013950Y058649D01*
X014027Y058726D01*
X014027Y058879D02*
X013950Y058956D01*
X013950Y059109D01*
X014027Y059186D01*
X014103Y059186D01*
X014180Y059109D01*
X014180Y059033D01*
X014180Y059109D02*
X014257Y059186D01*
X014334Y059186D01*
X014410Y059109D01*
X014410Y058956D01*
X014334Y058879D01*
X014334Y058726D02*
X014410Y058649D01*
X014410Y058496D01*
X014573Y058822D02*
X015187Y058822D01*
X014410Y059416D02*
X014410Y059570D01*
X014334Y059647D01*
X014027Y059340D01*
X013950Y059416D01*
X013950Y059570D01*
X014027Y059647D01*
X014334Y059647D01*
X014410Y059416D02*
X014334Y059340D01*
X014027Y059340D01*
X014727Y053397D02*
X015034Y053397D01*
X015110Y053320D01*
X015110Y053166D01*
X015034Y053090D01*
X014957Y053090D01*
X014880Y053166D01*
X014880Y053397D01*
X014727Y053397D02*
X014650Y053320D01*
X014650Y053166D01*
X014727Y053090D01*
X014727Y052936D02*
X014803Y052936D01*
X014880Y052859D01*
X014880Y052706D01*
X014957Y052629D01*
X015034Y052629D01*
X015110Y052706D01*
X015110Y052859D01*
X015034Y052936D01*
X015187Y052783D02*
X014573Y052783D01*
X014650Y052859D02*
X014727Y052936D01*
X014650Y052859D02*
X014650Y052706D01*
X014727Y052629D01*
X014727Y052476D02*
X015110Y052476D01*
X015110Y052169D02*
X014727Y052169D01*
X014650Y052246D01*
X014650Y052399D01*
X014727Y052476D01*
X014410Y052456D02*
X014334Y052379D01*
X014410Y052456D02*
X014410Y052609D01*
X014334Y052686D01*
X014257Y052686D01*
X013950Y052379D01*
X013950Y052686D01*
X014027Y052840D02*
X014103Y052840D01*
X014180Y052916D01*
X014180Y053070D01*
X014103Y053147D01*
X014027Y053147D01*
X013950Y053070D01*
X013950Y052916D01*
X014027Y052840D01*
X014180Y052916D02*
X014257Y052840D01*
X014334Y052840D01*
X014410Y052916D01*
X014410Y053070D01*
X014334Y053147D01*
X014257Y053147D01*
X014180Y053070D01*
X014027Y052226D02*
X013950Y052149D01*
X013950Y051996D01*
X014027Y051919D01*
X014334Y051919D01*
X014410Y051996D01*
X014410Y052149D01*
X014334Y052226D01*
X014727Y046897D02*
X014650Y046820D01*
X014650Y046666D01*
X014727Y046590D01*
X014803Y046590D01*
X014880Y046666D01*
X014880Y046820D01*
X014803Y046897D01*
X014727Y046897D01*
X014880Y046820D02*
X014957Y046897D01*
X015034Y046897D01*
X015110Y046820D01*
X015110Y046666D01*
X015034Y046590D01*
X014957Y046590D01*
X014880Y046666D01*
X014803Y046436D02*
X014880Y046359D01*
X014880Y046206D01*
X014957Y046129D01*
X015034Y046129D01*
X015110Y046206D01*
X015110Y046359D01*
X015034Y046436D01*
X015187Y046283D02*
X014573Y046283D01*
X014650Y046359D02*
X014727Y046436D01*
X014803Y046436D01*
X014650Y046359D02*
X014650Y046206D01*
X014727Y046129D01*
X014727Y045976D02*
X015110Y045976D01*
X015110Y045669D02*
X014727Y045669D01*
X014650Y045746D01*
X014650Y045899D01*
X014727Y045976D01*
X014410Y045956D02*
X014334Y045879D01*
X014410Y045956D02*
X014410Y046109D01*
X014334Y046186D01*
X014257Y046186D01*
X013950Y045879D01*
X013950Y046186D01*
X014027Y046340D02*
X013950Y046416D01*
X013950Y046570D01*
X014027Y046647D01*
X014103Y046647D01*
X014180Y046570D01*
X014180Y046340D01*
X014027Y046340D01*
X014180Y046340D02*
X014334Y046493D01*
X014410Y046647D01*
X014334Y045726D02*
X014410Y045649D01*
X014410Y045496D01*
X014334Y045419D01*
X014027Y045419D01*
X013950Y045496D01*
X013950Y045649D01*
X014027Y045726D01*
X015034Y040397D02*
X014727Y040090D01*
X014650Y040090D01*
X014727Y039936D02*
X014803Y039936D01*
X014880Y039859D01*
X014880Y039706D01*
X014957Y039629D01*
X015034Y039629D01*
X015110Y039706D01*
X015110Y039859D01*
X015034Y039936D01*
X015110Y040090D02*
X015110Y040397D01*
X015034Y040397D01*
X014727Y039936D02*
X014650Y039859D01*
X014650Y039706D01*
X014727Y039629D01*
X014727Y039476D02*
X015110Y039476D01*
X015110Y039169D02*
X014727Y039169D01*
X014650Y039246D01*
X014650Y039399D01*
X014727Y039476D01*
X014410Y039456D02*
X014334Y039379D01*
X014410Y039456D02*
X014410Y039609D01*
X014334Y039686D01*
X014257Y039686D01*
X013950Y039379D01*
X013950Y039686D01*
X014180Y039840D02*
X014180Y040147D01*
X013950Y040070D02*
X014410Y040070D01*
X014180Y039840D01*
X014573Y039783D02*
X015187Y039783D01*
X014410Y039149D02*
X014410Y038996D01*
X014334Y038919D01*
X014027Y038919D01*
X013950Y038996D01*
X013950Y039149D01*
X014027Y039226D01*
X014334Y039226D02*
X014410Y039149D01*
X014727Y033897D02*
X014803Y033897D01*
X014880Y033820D01*
X014880Y033590D01*
X014727Y033590D01*
X014650Y033666D01*
X014650Y033820D01*
X014727Y033897D01*
X015034Y033743D02*
X015110Y033897D01*
X015034Y033743D02*
X014880Y033590D01*
X014803Y033436D02*
X014880Y033359D01*
X014880Y033206D01*
X014957Y033129D01*
X015034Y033129D01*
X015110Y033206D01*
X015110Y033359D01*
X015034Y033436D01*
X015187Y033283D02*
X014573Y033283D01*
X014650Y033359D02*
X014727Y033436D01*
X014803Y033436D01*
X014650Y033359D02*
X014650Y033206D01*
X014727Y033129D01*
X014727Y032976D02*
X015110Y032976D01*
X015110Y032669D02*
X014727Y032669D01*
X014650Y032746D01*
X014650Y032899D01*
X014727Y032976D01*
X014410Y033033D02*
X014257Y032879D01*
X014334Y032726D02*
X014410Y032649D01*
X014410Y032496D01*
X014334Y032419D01*
X014027Y032419D01*
X013950Y032496D01*
X013950Y032649D01*
X014027Y032726D01*
X013950Y032879D02*
X013950Y033186D01*
X013950Y033033D02*
X014410Y033033D01*
X014180Y033340D02*
X014180Y033570D01*
X014103Y033647D01*
X014027Y033647D01*
X013950Y033570D01*
X013950Y033416D01*
X014027Y033340D01*
X014180Y033340D01*
X014334Y033493D01*
X014410Y033647D01*
X047463Y050409D02*
X047770Y050102D01*
X047770Y050025D01*
X047924Y050025D02*
X048077Y050178D01*
X048001Y050178D02*
X048231Y050178D01*
X048231Y050025D02*
X048231Y050485D01*
X048001Y050485D01*
X047924Y050409D01*
X047924Y050255D01*
X048001Y050178D01*
X047770Y050485D02*
X047463Y050485D01*
X047463Y050409D01*
X047540Y060100D02*
X047694Y060100D01*
X047770Y060177D01*
X047770Y060253D01*
X047694Y060330D01*
X047540Y060330D01*
X047463Y060253D01*
X047463Y060177D01*
X047540Y060100D01*
X047540Y060330D02*
X047463Y060407D01*
X047463Y060484D01*
X047540Y060560D01*
X047694Y060560D01*
X047770Y060484D01*
X047770Y060407D01*
X047694Y060330D01*
X047924Y060330D02*
X048001Y060253D01*
X048231Y060253D01*
X048231Y060100D02*
X048231Y060560D01*
X048001Y060560D01*
X047924Y060484D01*
X047924Y060330D01*
X048077Y060253D02*
X047924Y060100D01*
D14*
X052405Y044530D02*
X052407Y044552D01*
X052413Y044573D01*
X052422Y044592D01*
X052434Y044610D01*
X052450Y044626D01*
X052467Y044638D01*
X052487Y044647D01*
X052508Y044653D01*
X052530Y044655D01*
X052552Y044653D01*
X052573Y044647D01*
X052592Y044638D01*
X052610Y044626D01*
X052626Y044610D01*
X052638Y044592D01*
X052647Y044573D01*
X052653Y044552D01*
X052655Y044530D01*
X052653Y044508D01*
X052647Y044487D01*
X052638Y044468D01*
X052626Y044450D01*
X052610Y044434D01*
X052593Y044422D01*
X052573Y044413D01*
X052552Y044407D01*
X052530Y044405D01*
X052508Y044407D01*
X052487Y044413D01*
X052467Y044422D01*
X052450Y044434D01*
X052434Y044450D01*
X052422Y044467D01*
X052413Y044487D01*
X052407Y044508D01*
X052405Y044530D01*
M02*
