%
M48
M72
T01C0.0150
T02C0.0197
T03C0.0236
T04C0.0276
T05C0.0315
T06C0.0394
T07C0.0400
T08C0.0500
T09C0.0512
T10C0.0550
T11C0.0551
T12C0.0630
T13C0.0787
T14C0.1260
T15C0.3600
%
T01
X18580Y31480
X17130Y32280
X17130Y34530
X18580Y37980
X17130Y38780
X17130Y41030
X18580Y44480
X17130Y45280
X17130Y47530
X18580Y50980
X17130Y51780
X17130Y54530
X18580Y57480
X17130Y58280
X17130Y60968
X18580Y63980
X17130Y64780
X17130Y67530
X18580Y70480
X17130Y71280
X15880Y78830
X15880Y81980
X16880Y82480
X17880Y82280
X18880Y81280
X20130Y80030
X23005Y79968
X26130Y79968
X28630Y79968
X31380Y80030
X32380Y80530
X32880Y80030
X35880Y83030
X35380Y83530
X38130Y86280
X38818Y85780
X40630Y88718
X41755Y87405
X44630Y87405
X47505Y87405
X49880Y87405
X41730Y76030
X43180Y72130
X41993Y68268
X48480Y71880
X59880Y72780
X55330Y48930
X55380Y47655
X59880Y46780
X56330Y40730
X50780Y43280
X26880Y28980
X24755Y28905
X25130Y33480
X24693Y35405
X25130Y39980
X24755Y42030
X25130Y46480
X24693Y48405
X25130Y52980
X24693Y54905
X25130Y59480
X24693Y61343
X25130Y65980
X24693Y67905
X23380Y74280
X13980Y82880
X9230Y82380
T02
X49230Y43180
X38136Y18493
X38608Y18335
X38884Y17981
X38884Y17430
X38608Y17075
X38136Y16918
X37612Y16918
X37085Y16918
X36561Y16918
X36089Y17075
X35813Y17430
X35813Y17981
X36089Y18335
X36561Y18493
X37085Y18493
X37612Y18493
X34947Y17981
X34671Y18335
X34199Y18493
X33675Y18493
X33148Y18493
X32624Y18493
X32152Y18335
X31876Y17981
X31876Y17430
X32152Y17075
X32624Y16918
X33148Y16918
X33675Y16918
X34199Y16918
X34671Y17075
X34947Y17430
X28380Y5480
T03
X27180Y5980
X25780Y5080
X24580Y7780
X23480Y6980
X21180Y8780
X25180Y12280
X25180Y12780
X25180Y13280
X25680Y13280
X25680Y12780
X25680Y12280
X25680Y14280
X25680Y14780
X25180Y14780
X25180Y14280
X28180Y14280
X28680Y14780
X29180Y14280
X29680Y13780
X29180Y13280
X29680Y12780
X29180Y12280
X28680Y12780
X28180Y12280
X28180Y13280
X28680Y13780
X29680Y14780
X29180Y15280
X30180Y15280
X30680Y14780
X30180Y14280
X30680Y13780
X30180Y13280
X30680Y12780
X30180Y12280
X31180Y12280
X31180Y13280
X31180Y14280
X31180Y15280
X31080Y19280
X30580Y19780
X30080Y19280
X29580Y19780
X29080Y20280
X28580Y20780
X28080Y20280
X28580Y19780
X28080Y19280
X29080Y19280
X30080Y20280
X29580Y20780
X29080Y21280
X28580Y21780
X28080Y21280
X28080Y22280
X29080Y22280
X29580Y21780
X30080Y21280
X30580Y21780
X30080Y22280
X31080Y22280
X31080Y21280
X30580Y20780
X31080Y20280
X28180Y15280
X25680Y19280
X25680Y19780
X25680Y20280
X25180Y20280
X25180Y19780
X25180Y19280
X25180Y21280
X25180Y21780
X25680Y21780
X25680Y21280
X21880Y29780
X21880Y30280
X21880Y30780
X21880Y31280
X21880Y31780
X21880Y32280
X21880Y32780
X21380Y32280
X20880Y32280
X20880Y32780
X20380Y32780
X20380Y32280
X20380Y31780
X20380Y31280
X20380Y30780
X20380Y30280
X20380Y29780
X19880Y29780
X19380Y29780
X19380Y30280
X19380Y30780
X19880Y30780
X19880Y30280
X19880Y31280
X19380Y31280
X19380Y31780
X19880Y31780
X19880Y32280
X19380Y32280
X19380Y32280
X19380Y32780
X19880Y32780
X20880Y31780
X20880Y31280
X21380Y31280
X21380Y31780
X21380Y30780
X20880Y30780
X20880Y30280
X21380Y30280
X20880Y29780
X23680Y32180
X21880Y36280
X21880Y36780
X21880Y37280
X21880Y37780
X21880Y38280
X21880Y38780
X21880Y39280
X21380Y38780
X20880Y38780
X20880Y39280
X20380Y39280
X20380Y38780
X20380Y38280
X20380Y37780
X20380Y37280
X20380Y36780
X20380Y36280
X19880Y36280
X19380Y36280
X19380Y36780
X19880Y36780
X19880Y37280
X19380Y37280
X19380Y37780
X19880Y37780
X19880Y38280
X19380Y38280
X19380Y38780
X19380Y38780
X19880Y38780
X19880Y39280
X19380Y39280
X20880Y38280
X20880Y37780
X21380Y37780
X21380Y38280
X21380Y37280
X20880Y37280
X20880Y36780
X20880Y36280
X21380Y36780
X20880Y42780
X20880Y43280
X21380Y43280
X21380Y43780
X20880Y43780
X20880Y44280
X21380Y44280
X21380Y44780
X20880Y44780
X20880Y45280
X21380Y45280
X21880Y45280
X21880Y44780
X21880Y44280
X21880Y43780
X21880Y43280
X21880Y42780
X20380Y42780
X20380Y43280
X20380Y43780
X20380Y44280
X20380Y44780
X20380Y45280
X20380Y45780
X19880Y45780
X19380Y45780
X19380Y45280
X19380Y45280
X19380Y44780
X19880Y44780
X19880Y45280
X19880Y44280
X19880Y43780
X19380Y43780
X19380Y44280
X19380Y43280
X19380Y42780
X19880Y42780
X19880Y43280
X20880Y45780
X21880Y45780
X21880Y49280
X21880Y49780
X21880Y50280
X21880Y50780
X21880Y51280
X21880Y51780
X21880Y52280
X21380Y51780
X20880Y51780
X20880Y51280
X20880Y50780
X21380Y50780
X21380Y51280
X21380Y50280
X20880Y50280
X20880Y49780
X21380Y49780
X20880Y49280
X20380Y49280
X20380Y49780
X20380Y50280
X20380Y50780
X20380Y51280
X20380Y51780
X20380Y52280
X19880Y52280
X19380Y52280
X19380Y51780
X19380Y51780
X19880Y51780
X19880Y51280
X19880Y50780
X19380Y50780
X19380Y51280
X19380Y50280
X19380Y49780
X19880Y49780
X19880Y50280
X19880Y49280
X19380Y49280
X20880Y52280
X20880Y55780
X20880Y56280
X20880Y56780
X21380Y56780
X21380Y56280
X21880Y56280
X21880Y56780
X21880Y57280
X21880Y57780
X21880Y58280
X21880Y58780
X21380Y58280
X20880Y58280
X20880Y58780
X20380Y58780
X20380Y58280
X20380Y57780
X20380Y57280
X20380Y56780
X20380Y56280
X20380Y55780
X19880Y55780
X19380Y55780
X19380Y56280
X19380Y56780
X19880Y56780
X19880Y56280
X19880Y57280
X19380Y57280
X19380Y57780
X19880Y57780
X19880Y58280
X19380Y58280
X19380Y58280
X19380Y58780
X19880Y58780
X20880Y57780
X20880Y57280
X21380Y57280
X21380Y57780
X21880Y55780
X21880Y62280
X21880Y62780
X21880Y63280
X21880Y63780
X21880Y64280
X21880Y64780
X21880Y65280
X21380Y64780
X20880Y64780
X20880Y64280
X21380Y64280
X21380Y63780
X20880Y63780
X20880Y63280
X21380Y63280
X21380Y62780
X20880Y62780
X20880Y62280
X20380Y62280
X20380Y62780
X20380Y63280
X20380Y63780
X20380Y64280
X20380Y64780
X20380Y65280
X19880Y65280
X19380Y65280
X19380Y64780
X19380Y64780
X19380Y64280
X19880Y64280
X19880Y64780
X19880Y63780
X19880Y63280
X19380Y63280
X19380Y63780
X19380Y62780
X19380Y62280
X19880Y62280
X19880Y62780
X20880Y65280
X20880Y68780
X20880Y69280
X21380Y69280
X21380Y69780
X20880Y69780
X20880Y70280
X21380Y70280
X21380Y70780
X20880Y70780
X20880Y71280
X21380Y71280
X21880Y71280
X21880Y70780
X21880Y70280
X21880Y69780
X21880Y69280
X21880Y68780
X20380Y68780
X20380Y69280
X20380Y69780
X20380Y70280
X20380Y70780
X20380Y71280
X20380Y71780
X19880Y71780
X19380Y71780
X19380Y71280
X19380Y71280
X19380Y70780
X19880Y70780
X19880Y71280
X19880Y70280
X19880Y69780
X19380Y69780
X19380Y70280
X19380Y69280
X19380Y68780
X19880Y68780
X19880Y69280
X20880Y71780
X21880Y71780
X20180Y2880
T04
X32396Y43280
X34364Y43280
X34364Y50780
X32396Y50780
X32396Y58280
X34364Y58280
X34364Y65780
X32396Y65780
X39380Y63780
X39380Y62780
X39380Y61780
X39380Y60780
X40380Y60780
X40380Y61780
X40380Y62780
X40380Y63780
X40380Y53280
X40380Y52280
X39380Y52280
X39380Y53280
X39380Y51280
X39380Y50280
X40380Y50280
X40380Y51280
X57880Y53280
X57880Y54280
X57880Y55280
X57880Y56280
X58880Y56280
X58880Y55280
X58880Y54280
X58880Y53280
X58880Y64530
X58880Y65530
X58880Y66530
X58880Y67530
X57880Y67530
X57880Y66530
X57880Y65530
X57880Y64530
T05
X40182Y38190
X42603Y35769
X36132Y9280
X35380Y9280
X34628Y9280
T06
X40880Y39730
X41880Y39730
X42880Y39730
X43880Y39730
X44880Y39730
X45880Y39730
X46880Y39730
X47880Y39730
X48880Y39730
X49880Y39730
X50880Y39730
X51880Y39730
X52880Y39730
X53880Y39730
X54880Y39730
X55880Y39730
X57380Y41030
X57380Y42030
X57380Y43030
X57380Y44030
X58380Y43530
X58380Y42530
X58380Y41530
X58380Y40530
X55880Y46730
X54880Y46730
X53880Y46730
X52880Y46730
X51880Y46730
X50880Y46730
X49880Y46730
X48880Y46730
X47880Y46730
X46880Y46730
X45880Y46730
X44880Y46730
X43880Y46730
X42880Y46730
X41880Y46730
X40880Y46730
T07
X53380Y35030
X54380Y35030
X55380Y35030
X58380Y46280
X58380Y48280
X57880Y61780
X59880Y61780
X27380Y3380
X26380Y3380
X25380Y3380
X17005Y87093
X17005Y89093
T08
X32443Y76593
X33443Y76593
X34443Y76593
X35443Y76593
X36443Y76593
X36443Y73593
X35443Y73593
X34443Y73593
X33443Y73593
X32463Y73573
X38923Y73885
X38943Y72905
X38943Y71905
X38943Y70905
X38943Y69905
X41943Y69905
X41943Y70905
X41943Y71905
X41943Y72905
X41943Y73905
T09
X47630Y70530
X50630Y70530
X53630Y70530
X40880Y81780
X40880Y84780
X40880Y87780
T10
X36880Y70780
X29880Y70780
X36193Y29530
X43193Y29530
T11
X42252Y49532
X47252Y49532
X48504Y49532
X49756Y49532
X56008Y49532
X56008Y57032
X56008Y59532
X61130Y59235
X61130Y57825
X56008Y67032
X49756Y59532
X48504Y59532
X47252Y59532
X42252Y59532
X42252Y57032
X42252Y67032
X61130Y79825
X61130Y81235
X59130Y32735
X59130Y31325
X10430Y75325
X10430Y76735
T12
X10380Y72280
X10380Y69280
X13380Y69280
X13380Y72280
X13380Y65780
X13380Y62780
X13380Y59280
X13380Y56280
X10380Y56280
X10380Y59280
X10380Y62780
X10380Y65780
X10380Y52780
X10380Y49780
X13380Y49780
X13380Y52780
X13380Y46280
X13380Y43280
X13380Y39780
X13380Y36780
X13380Y33280
X13380Y30280
X10380Y30280
X10380Y33280
X10380Y36780
X10380Y39780
X10380Y43280
X10380Y46280
X33880Y7080
X33880Y4080
X36880Y4080
X36880Y7080
X12880Y85780
X12880Y88780
X9880Y88780
X9880Y85780
T13
X20880Y87780
X20880Y81780
X47630Y90530
X53630Y90530
T14
X60880Y44530
X60880Y40030
T15
X19380Y17280
X33380Y33280
X45880Y33280
X45880Y17280
M30
