G75*
%MOIN*%
%OFA0B0*%
%FSLAX24Y24*%
%IPPOS*%
%LPD*%
%AMOC8*
5,1,8,0,0,1.08239X$1,22.5*
%
%ADD10C,0.0848*%
%ADD11C,0.1261*%
%ADD12R,0.0907X0.0907*%
%ADD13R,0.0556X0.0556*%
%ADD14C,0.0556*%
%ADD15C,0.0674*%
%ADD16C,0.0820*%
%ADD17R,0.0820X0.0820*%
%ADD18C,0.1340*%
%ADD19R,0.0710X0.0790*%
%ADD20C,0.7280*%
%ADD21R,0.0316X0.0946*%
%ADD22R,0.0789X0.0710*%
%ADD23C,0.1025*%
%ADD24C,0.0680*%
%ADD25C,0.1080*%
%ADD26OC8,0.1080*%
%ADD27C,0.0907*%
%ADD28R,0.0830X0.0830*%
%ADD29C,0.0830*%
%ADD30C,0.0905*%
%ADD31C,0.0395*%
%ADD32C,0.0671*%
%ADD33R,0.3623X0.2442*%
%ADD34C,0.0477*%
%ADD35C,0.0437*%
%ADD36R,0.0476X0.0476*%
%ADD37C,0.0476*%
D10*
X047630Y070530D03*
X050630Y070530D03*
X053630Y070530D03*
X040880Y081780D03*
X040880Y084780D03*
X040880Y087780D03*
D11*
X047630Y090530D03*
X053630Y090530D03*
X020880Y087780D03*
X020880Y081780D03*
D12*
X042252Y067032D03*
X042252Y059532D03*
X042252Y057032D03*
X047252Y059532D03*
X048504Y059532D03*
X049756Y059532D03*
X056008Y059532D03*
X056008Y057032D03*
X056008Y049532D03*
X049756Y049532D03*
X048504Y049532D03*
X047252Y049532D03*
X042252Y049532D03*
X056008Y067032D03*
D13*
X057880Y067530D03*
X057880Y056280D03*
X039380Y053280D03*
X039380Y063780D03*
X032396Y065780D03*
X032396Y058280D03*
X032396Y050780D03*
X032396Y043280D03*
D14*
X034364Y043280D03*
X034364Y050780D03*
X039380Y050280D03*
X039380Y051280D03*
X040380Y051280D03*
X040380Y050280D03*
X040380Y052280D03*
X040380Y053280D03*
X039380Y052280D03*
X034364Y058280D03*
X034364Y065780D03*
X039380Y062780D03*
X039380Y061780D03*
X039380Y060780D03*
X040380Y060780D03*
X040380Y061780D03*
X040380Y062780D03*
X040380Y063780D03*
X057880Y064530D03*
X057880Y065530D03*
X057880Y066530D03*
X058880Y066530D03*
X058880Y065530D03*
X058880Y064530D03*
X058880Y067530D03*
X058880Y056280D03*
X058880Y055280D03*
X058880Y054280D03*
X058880Y053280D03*
X057880Y053280D03*
X057880Y054280D03*
X057880Y055280D03*
D15*
X055880Y046730D03*
X054880Y046730D03*
X053880Y046730D03*
X052880Y046730D03*
X051880Y046730D03*
X050880Y046730D03*
X049880Y046730D03*
X048880Y046730D03*
X047880Y046730D03*
X046880Y046730D03*
X045880Y046730D03*
X044880Y046730D03*
X043880Y046730D03*
X042880Y046730D03*
X041880Y046730D03*
X040880Y046730D03*
X040880Y039730D03*
X041880Y039730D03*
X042880Y039730D03*
X043880Y039730D03*
X044880Y039730D03*
X045880Y039730D03*
X046880Y039730D03*
X047880Y039730D03*
X048880Y039730D03*
X049880Y039730D03*
X050880Y039730D03*
X051880Y039730D03*
X052880Y039730D03*
X053880Y039730D03*
X054880Y039730D03*
X055880Y039730D03*
D16*
X057380Y041030D03*
X057380Y042030D03*
X057380Y043030D03*
X057380Y044030D03*
X058380Y043530D03*
X058380Y042530D03*
X058380Y041530D03*
X027380Y003380D03*
X026380Y003380D03*
X025380Y003380D03*
D17*
X058380Y040530D03*
D18*
X060880Y040030D03*
X060880Y044530D03*
D19*
X048440Y050955D03*
X047320Y050955D03*
X047320Y061030D03*
X048440Y061030D03*
D20*
X019380Y017280D03*
X033380Y033280D03*
X045880Y033280D03*
X045880Y017280D03*
D21*
X017130Y032256D03*
X016630Y032256D03*
X016130Y032256D03*
X015630Y032256D03*
X015630Y034304D03*
X016130Y034304D03*
X016630Y034304D03*
X017130Y034304D03*
X017130Y038756D03*
X016630Y038756D03*
X016130Y038756D03*
X015630Y038756D03*
X015630Y040804D03*
X016130Y040804D03*
X016630Y040804D03*
X017130Y040804D03*
X017130Y045256D03*
X016630Y045256D03*
X016130Y045256D03*
X015630Y045256D03*
X015630Y047304D03*
X016130Y047304D03*
X016630Y047304D03*
X017130Y047304D03*
X017130Y051756D03*
X016630Y051756D03*
X016130Y051756D03*
X015630Y051756D03*
X015630Y053804D03*
X016130Y053804D03*
X016630Y053804D03*
X017130Y053804D03*
X017130Y058256D03*
X016630Y058256D03*
X016130Y058256D03*
X015630Y058256D03*
X015630Y060304D03*
X016130Y060304D03*
X016630Y060304D03*
X017130Y060304D03*
X017130Y064756D03*
X016630Y064756D03*
X016130Y064756D03*
X015630Y064756D03*
X015630Y066804D03*
X016130Y066804D03*
X016630Y066804D03*
X017130Y066804D03*
X017130Y071256D03*
X016630Y071256D03*
X016130Y071256D03*
X015630Y071256D03*
X015630Y073304D03*
X016130Y073304D03*
X016630Y073304D03*
X017130Y073304D03*
D22*
X014880Y072831D03*
X014880Y071729D03*
X014880Y066331D03*
X014880Y065229D03*
X014880Y059831D03*
X014880Y058729D03*
X014880Y053331D03*
X014880Y052229D03*
X014880Y046831D03*
X014880Y045729D03*
X014880Y040331D03*
X014880Y039229D03*
X014880Y033831D03*
X014880Y032729D03*
D23*
X013380Y033280D03*
X013380Y030280D03*
X010380Y030280D03*
X010380Y033280D03*
X010380Y036780D03*
X010380Y039780D03*
X010380Y043280D03*
X010380Y046280D03*
X013380Y046280D03*
X013380Y043280D03*
X013380Y039780D03*
X013380Y036780D03*
X013380Y049780D03*
X013380Y052780D03*
X010380Y052780D03*
X010380Y049780D03*
X010380Y056280D03*
X010380Y059280D03*
X010380Y062780D03*
X010380Y065780D03*
X013380Y065780D03*
X013380Y062780D03*
X013380Y059280D03*
X013380Y056280D03*
X013380Y069280D03*
X013380Y072280D03*
X010380Y072280D03*
X010380Y069280D03*
X009880Y085780D03*
X009880Y088780D03*
X012880Y088780D03*
X012880Y085780D03*
X033880Y007080D03*
X033880Y004080D03*
X036880Y004080D03*
X036880Y007080D03*
D24*
X053380Y035030D03*
X054380Y035030D03*
X055380Y035030D03*
D25*
X058380Y048280D03*
X057880Y061780D03*
X017005Y087093D03*
D26*
X017005Y089093D03*
X058380Y046280D03*
X059880Y061780D03*
D27*
X061130Y059235D03*
X061130Y057825D03*
X061130Y079825D03*
X061130Y081235D03*
X059130Y032735D03*
X059130Y031325D03*
X010430Y075325D03*
X010430Y076735D03*
D28*
X032463Y073573D03*
X038923Y073885D03*
D29*
X038943Y072905D03*
X038943Y071905D03*
X038943Y070905D03*
X038943Y069905D03*
X041943Y069905D03*
X041943Y070905D03*
X041943Y071905D03*
X041943Y072905D03*
X041943Y073905D03*
X036443Y073593D03*
X035443Y073593D03*
X034443Y073593D03*
X033443Y073593D03*
X033443Y076593D03*
X034443Y076593D03*
X035443Y076593D03*
X036443Y076593D03*
X032443Y076593D03*
D30*
X030293Y070780D02*
X029468Y070780D01*
X036468Y070780D02*
X037293Y070780D01*
X036605Y029530D02*
X035780Y029530D01*
X042780Y029530D02*
X043605Y029530D01*
D31*
X042603Y035769D03*
X040182Y038190D03*
D32*
X036132Y009280D03*
X035380Y009280D03*
X034628Y009280D03*
D33*
X033411Y017705D03*
X037349Y017705D03*
D34*
X037612Y016918D03*
X038136Y016918D03*
X038608Y017075D03*
X038884Y017430D03*
X038884Y017981D03*
X038608Y018335D03*
X038136Y018493D03*
X037612Y018493D03*
X037085Y018493D03*
X036561Y018493D03*
X036089Y018335D03*
X035813Y017981D03*
X035813Y017430D03*
X036089Y017075D03*
X036561Y016918D03*
X037085Y016918D03*
X034947Y017430D03*
X034671Y017075D03*
X034199Y016918D03*
X033675Y016918D03*
X033148Y016918D03*
X032624Y016918D03*
X032152Y017075D03*
X031876Y017430D03*
X031876Y017981D03*
X032152Y018335D03*
X032624Y018493D03*
X033148Y018493D03*
X033675Y018493D03*
X034199Y018493D03*
X034671Y018335D03*
X034947Y017981D03*
D35*
X028380Y005480D03*
X049230Y043180D03*
D36*
X023680Y032180D03*
X021880Y032280D03*
X021880Y032780D03*
X021380Y032280D03*
X020880Y032280D03*
X020880Y032780D03*
X020380Y032780D03*
X020380Y032280D03*
X020380Y031780D03*
X020380Y031280D03*
X020380Y030780D03*
X020380Y030280D03*
X020380Y029780D03*
X019880Y029780D03*
X019380Y029780D03*
X019380Y030280D03*
X019380Y030780D03*
X019880Y030780D03*
X019880Y030280D03*
X019880Y031280D03*
X019380Y031280D03*
X019380Y031780D03*
X019880Y031780D03*
X019880Y032280D03*
X019380Y032280D03*
X019380Y032280D03*
X019380Y032780D03*
X019880Y032780D03*
X020880Y031780D03*
X020880Y031280D03*
X021380Y031280D03*
X021380Y031780D03*
X021880Y031780D03*
X021880Y031280D03*
X021880Y030780D03*
X021880Y030280D03*
X021880Y029780D03*
X021380Y030280D03*
X020880Y030280D03*
X020880Y030780D03*
X021380Y030780D03*
X020880Y029780D03*
X020880Y036280D03*
X020880Y036780D03*
X021380Y036780D03*
X021380Y037280D03*
X020880Y037280D03*
X020880Y037780D03*
X020880Y038280D03*
X021380Y038280D03*
X021380Y037780D03*
X021880Y037780D03*
X021880Y038280D03*
X021880Y038780D03*
X021880Y039280D03*
X021380Y038780D03*
X020880Y038780D03*
X020880Y039280D03*
X020380Y039280D03*
X020380Y038780D03*
X020380Y038280D03*
X020380Y037780D03*
X020380Y037280D03*
X020380Y036780D03*
X020380Y036280D03*
X019880Y036280D03*
X019380Y036280D03*
X019380Y036780D03*
X019880Y036780D03*
X019880Y037280D03*
X019380Y037280D03*
X019380Y037780D03*
X019880Y037780D03*
X019880Y038280D03*
X019380Y038280D03*
X019380Y038780D03*
X019380Y038780D03*
X019880Y038780D03*
X019880Y039280D03*
X019380Y039280D03*
X021880Y037280D03*
X021880Y036780D03*
X021880Y036280D03*
X021880Y042780D03*
X021880Y043280D03*
X021880Y043780D03*
X021880Y044280D03*
X021880Y044780D03*
X021880Y045280D03*
X021880Y045780D03*
X021380Y045280D03*
X020880Y045280D03*
X020880Y044780D03*
X021380Y044780D03*
X021380Y044280D03*
X020880Y044280D03*
X020880Y043780D03*
X021380Y043780D03*
X021380Y043280D03*
X020880Y043280D03*
X020880Y042780D03*
X020380Y042780D03*
X020380Y043280D03*
X020380Y043780D03*
X020380Y044280D03*
X020380Y044780D03*
X020380Y045280D03*
X020380Y045780D03*
X019880Y045780D03*
X019380Y045780D03*
X019380Y045280D03*
X019380Y045280D03*
X019380Y044780D03*
X019880Y044780D03*
X019880Y045280D03*
X019880Y044280D03*
X019880Y043780D03*
X019380Y043780D03*
X019380Y044280D03*
X019380Y043280D03*
X019380Y042780D03*
X019880Y042780D03*
X019880Y043280D03*
X020880Y045780D03*
X020880Y049280D03*
X020880Y049780D03*
X020880Y050280D03*
X021380Y050280D03*
X021380Y049780D03*
X021880Y049780D03*
X021880Y050280D03*
X021880Y050780D03*
X021880Y051280D03*
X021880Y051780D03*
X021880Y052280D03*
X021380Y051780D03*
X020880Y051780D03*
X020880Y051280D03*
X020880Y050780D03*
X021380Y050780D03*
X021380Y051280D03*
X020380Y051280D03*
X020380Y050780D03*
X020380Y050280D03*
X020380Y049780D03*
X020380Y049280D03*
X019880Y049280D03*
X019380Y049280D03*
X019380Y049780D03*
X019380Y050280D03*
X019880Y050280D03*
X019880Y049780D03*
X019880Y050780D03*
X019380Y050780D03*
X019380Y051280D03*
X019880Y051280D03*
X019880Y051780D03*
X019380Y051780D03*
X019380Y051780D03*
X019380Y052280D03*
X019880Y052280D03*
X020380Y052280D03*
X020380Y051780D03*
X020880Y052280D03*
X020880Y055780D03*
X020880Y056280D03*
X020880Y056780D03*
X021380Y056780D03*
X021380Y056280D03*
X021880Y056280D03*
X021880Y056780D03*
X021880Y057280D03*
X021880Y057780D03*
X021880Y058280D03*
X021880Y058780D03*
X021380Y058280D03*
X020880Y058280D03*
X020880Y058780D03*
X020380Y058780D03*
X020380Y058280D03*
X020380Y057780D03*
X020380Y057280D03*
X020380Y056780D03*
X020380Y056280D03*
X020380Y055780D03*
X019880Y055780D03*
X019380Y055780D03*
X019380Y056280D03*
X019380Y056780D03*
X019880Y056780D03*
X019880Y056280D03*
X019880Y057280D03*
X019380Y057280D03*
X019380Y057780D03*
X019880Y057780D03*
X019880Y058280D03*
X019380Y058280D03*
X019380Y058280D03*
X019380Y058780D03*
X019880Y058780D03*
X020880Y057780D03*
X020880Y057280D03*
X021380Y057280D03*
X021380Y057780D03*
X021880Y055780D03*
X021880Y049280D03*
X021880Y062280D03*
X021880Y062780D03*
X021880Y063280D03*
X021880Y063780D03*
X021880Y064280D03*
X021880Y064780D03*
X021880Y065280D03*
X021380Y064780D03*
X020880Y064780D03*
X020880Y064280D03*
X021380Y064280D03*
X021380Y063780D03*
X020880Y063780D03*
X020880Y063280D03*
X021380Y063280D03*
X021380Y062780D03*
X020880Y062780D03*
X020880Y062280D03*
X020380Y062280D03*
X020380Y062780D03*
X020380Y063280D03*
X020380Y063780D03*
X020380Y064280D03*
X020380Y064780D03*
X020380Y065280D03*
X019880Y065280D03*
X019380Y065280D03*
X019380Y064780D03*
X019380Y064780D03*
X019380Y064280D03*
X019880Y064280D03*
X019880Y064780D03*
X019880Y063780D03*
X019880Y063280D03*
X019380Y063280D03*
X019380Y063780D03*
X019380Y062780D03*
X019380Y062280D03*
X019880Y062280D03*
X019880Y062780D03*
X020880Y065280D03*
X020880Y068780D03*
X020880Y069280D03*
X021380Y069280D03*
X021380Y069780D03*
X020880Y069780D03*
X020880Y070280D03*
X021380Y070280D03*
X021380Y070780D03*
X020880Y070780D03*
X020880Y071280D03*
X021380Y071280D03*
X021880Y071280D03*
X021880Y070780D03*
X021880Y070280D03*
X021880Y069780D03*
X021880Y069280D03*
X021880Y068780D03*
X020380Y068780D03*
X020380Y069280D03*
X020380Y069780D03*
X020380Y070280D03*
X020380Y070780D03*
X020380Y071280D03*
X020380Y071780D03*
X019880Y071780D03*
X019380Y071780D03*
X019380Y071280D03*
X019380Y071280D03*
X019380Y070780D03*
X019880Y070780D03*
X019880Y071280D03*
X019880Y070280D03*
X019880Y069780D03*
X019380Y069780D03*
X019380Y070280D03*
X019380Y069280D03*
X019380Y068780D03*
X019880Y068780D03*
X019880Y069280D03*
X020880Y071780D03*
X021880Y071780D03*
D37*
X028080Y022280D03*
X028580Y021780D03*
X028080Y021280D03*
X028580Y020780D03*
X028080Y020280D03*
X028580Y019780D03*
X028080Y019280D03*
X029080Y019280D03*
X029580Y019780D03*
X029080Y020280D03*
X029580Y020780D03*
X029080Y021280D03*
X029580Y021780D03*
X029080Y022280D03*
X030080Y022280D03*
X030580Y021780D03*
X030080Y021280D03*
X030580Y020780D03*
X030080Y020280D03*
X030580Y019780D03*
X030080Y019280D03*
X031080Y019280D03*
X031080Y020280D03*
X031080Y021280D03*
X031080Y022280D03*
X025680Y021780D03*
X025680Y021280D03*
X025180Y021280D03*
X025180Y021780D03*
X025180Y020280D03*
X025180Y019780D03*
X025180Y019280D03*
X025680Y019280D03*
X025680Y019780D03*
X025680Y020280D03*
X025680Y014780D03*
X025680Y014280D03*
X025180Y014280D03*
X025180Y014780D03*
X025180Y013280D03*
X025180Y012780D03*
X025180Y012280D03*
X025680Y012280D03*
X025680Y012780D03*
X025680Y013280D03*
X028180Y013280D03*
X028680Y013780D03*
X029180Y013280D03*
X029680Y012780D03*
X029180Y012280D03*
X028680Y012780D03*
X028180Y012280D03*
X028180Y014280D03*
X028680Y014780D03*
X029180Y014280D03*
X029680Y013780D03*
X030180Y013280D03*
X030680Y013780D03*
X031180Y013280D03*
X030680Y012780D03*
X030180Y012280D03*
X031180Y012280D03*
X031180Y014280D03*
X030680Y014780D03*
X030180Y014280D03*
X029680Y014780D03*
X029180Y015280D03*
X030180Y015280D03*
X031180Y015280D03*
X028180Y015280D03*
X024580Y007780D03*
X023480Y006980D03*
X021180Y008780D03*
X025780Y005080D03*
X027180Y005980D03*
X020180Y002880D03*
M02*
